<?xml version="1.0" standalone="no"?>
<!DOCTYPE svg PUBLIC "-//W3C//DTD SVG 20010904//EN"
 "http://www.w3.org/TR/2001/REC-SVG-20010904/DTD/svg10.dtd">
<svg version="1.0" xmlns="http://www.w3.org/2000/svg"
 width="512.000000pt" height="512.000000pt" viewBox="0 0 512.000000 512.000000"
 preserveAspectRatio="xMidYMid meet">
<metadata>
Created by potrace 1.14, written by Peter Selinger 2001-2017
</metadata>
<g transform="translate(0.000000,512.000000) scale(0.100000,-0.100000)"
fill="#000000" stroke="none">
<path d="M3985 4910 c-115 -26 -167 -45 -281 -101 -469 -233 -806 -785 -819
-1344 -2 -77 0 -170 5 -207 33 -248 131 -465 281 -619 38 -40 69 -74 69 -77 0
-6 -58 -134 -125 -277 -28 -60 -64 -138 -80 -173 -21 -45 -33 -61 -44 -58 -9
3 -34 7 -56 11 -44 6 -61 23 -100 99 -22 43 -25 63 -25 149 0 60 -6 120 -16
153 -12 41 -116 199 -459 696 -244 354 -457 663 -475 688 -17 25 -72 104 -121
175 -49 72 -93 137 -99 145 -6 8 -60 87 -121 175 -124 179 -164 222 -246 260
-70 33 -188 44 -260 25 -87 -24 -178 -92 -228 -170 -68 -108 -73 -270 -13
-379 10 -18 155 -230 320 -470 473 -684 487 -704 459 -687 -5 3 -40 9 -77 13
-577 59 -1114 -266 -1328 -804 -61 -154 -89 -303 -88 -478 2 -643 492 -1188
1133 -1261 257 -30 543 28 766 153 78 43 201 134 261 192 l44 42 -8 -33 c-54
-241 90 -481 327 -545 56 -16 160 -15 222 2 82 21 127 47 195 109 140 131 180
344 97 519 -30 64 -98 144 -139 166 -41 22 -30 30 22 16 106 -29 129 -51 271
-255 72 -105 131 -194 131 -199 0 -5 -6 -11 -13 -14 -20 -7 -47 -70 -47 -106
0 -46 27 -92 76 -131 71 -56 153 -76 239 -58 58 12 272 152 310 203 l26 34 32
-19 c55 -33 120 -51 177 -51 61 0 337 70 375 95 31 20 49 75 36 109 -6 14 -55
89 -110 166 -86 121 -98 142 -83 149 9 5 99 44 200 87 197 83 212 95 212 167
0 29 -16 49 -147 176 l-147 142 24 18 c14 9 74 49 135 87 142 90 150 96 163
122 16 29 15 58 -3 92 -14 27 -224 189 -295 227 -48 26 -180 26 -545 -1 -27
-2 -95 -6 -150 -10 -55 -3 -127 -8 -160 -10 -189 -13 -235 -15 -235 -9 0 3 7
18 15 32 8 15 31 63 51 107 19 44 51 114 71 156 l35 76 41 -8 c23 -4 89 -6
147 -5 569 18 1106 554 1236 1234 14 74 15 93 19 232 6 234 -28 399 -120 586
-117 235 -302 394 -545 464 -104 31 -302 35 -415 10z m385 -125 c223 -69 377
-207 480 -429 36 -76 70 -185 85 -266 11 -61 14 -313 5 -370 -5 -30 -12 -71
-15 -90 -16 -102 -80 -290 -136 -402 -156 -311 -424 -566 -701 -667 -105 -39
-184 -54 -293 -57 -298 -7 -545 146 -684 425 -29 57 -75 191 -85 246 -3 17 -8
44 -12 60 -15 75 -11 312 7 418 43 251 167 524 327 717 178 216 424 373 662
424 88 19 287 14 360 -9z m-3131 -296 c49 -26 101 -93 296 -378 61 -89 139
-203 174 -254 35 -50 137 -198 226 -327 89 -129 289 -419 444 -644 155 -225
287 -420 293 -435 6 -14 14 -83 18 -153 6 -108 11 -135 34 -181 14 -30 26 -57
26 -60 0 -3 -13 -8 -29 -12 -16 -3 -54 -21 -84 -39 l-54 -33 -33 96 c-72 214
-213 426 -368 554 -47 40 -76 41 -105 6 -20 -25 -15 -53 14 -84 18 -21 16 -23
-180 -219 l-198 -198 -26 32 c-72 85 -132 218 -161 353 -11 57 -14 226 -5 284
3 16 51 9 149 -23 91 -29 112 -30 134 -5 28 31 17 73 -25 94 -29 14 -90 95
-344 465 -170 246 -365 528 -434 626 -69 99 -130 196 -137 215 -48 135 25 288
161 339 49 19 163 8 214 -19z m157 -1815 c0 -160 13 -231 60 -353 31 -77 83
-168 131 -228 18 -23 33 -45 33 -50 0 -4 -64 -72 -143 -151 l-142 -142 -388
386 c-213 213 -387 390 -387 393 0 4 30 30 67 58 210 157 458 241 703 237 l65
0 1 -150z m2022 -214 c34 -16 67 -30 72 -30 6 0 10 -2 10 -6 0 -8 -181 -398
-189 -406 -13 -15 -163 -10 -178 6 -3 3 18 53 90 206 19 41 47 102 62 135 49
109 57 125 64 125 4 0 35 -13 69 -30z m-2557 -407 l389 -387 -143 -143 c-78
-78 -145 -143 -149 -143 -5 0 -36 21 -70 46 -106 78 -242 137 -378 165 -69 14
-259 19 -306 9 l-35 -8 2 94 c1 52 5 113 9 137 5 23 11 58 14 77 22 144 141
391 236 494 17 17 30 34 30 39 0 4 3 7 6 7 4 0 182 -174 395 -387z m1434 262
c29 -44 66 -107 83 -141 35 -70 89 -234 94 -283 3 -31 0 -34 -27 -39 -81 -14
-225 -6 -320 18 -68 16 -241 101 -288 141 l-39 32 198 198 198 198 24 -22 c13
-12 48 -58 77 -102z m-485 -432 c105 -71 255 -130 376 -148 68 -11 222 -13
264 -4 21 5 37 4 41 -2 12 -20 -1 -208 -21 -303 -41 -188 -136 -385 -242 -502
l-32 -35 -388 388 -388 388 147 147 147 148 26 -24 c14 -13 45 -37 70 -53z
m2673 63 c20 -8 74 -44 122 -80 48 -35 92 -67 98 -69 19 -7 -7 -27 -158 -123
l-140 -89 -65 1 c-58 1 -176 8 -295 18 -22 2 -87 7 -145 11 -58 3 -121 8 -140
10 -54 6 -212 17 -410 30 -63 4 -118 10 -123 14 -7 7 31 200 42 213 5 6 101
14 276 23 33 2 94 6 135 9 41 3 122 8 180 12 58 3 125 7 150 9 25 2 95 7 155
11 61 3 111 7 112 8 1 0 40 2 86 4 58 2 96 -1 120 -12z m-1588 -18 c-2 -13
-36 -174 -75 -358 -39 -184 -74 -345 -77 -357 -9 -38 -95 -22 -156 28 l-35 29
19 64 c29 97 46 240 43 367 -3 104 -1 117 19 146 37 55 138 100 230 102 34 1
37 -1 32 -21z m227 -27 c24 -9 26 -13 18 -38 -5 -15 -41 -181 -81 -368 -39
-187 -74 -343 -78 -347 -9 -10 -121 13 -121 25 0 11 138 659 151 710 10 37 11
38 47 33 21 -2 50 -9 64 -15z m-1049 -1130 c-46 -41 -150 -109 -218 -144 -64
-32 -210 -83 -259 -91 -21 -4 -41 -8 -45 -10 -18 -11 -253 -27 -278 -18 -7 2
-9 14 -6 30 11 53 5 248 -11 318 -29 136 -92 273 -174 383 l-39 51 146 145
146 145 388 -388 388 -387 -38 -34z m1277 764 c61 -4 119 -8 128 -10 9 -1 71
-6 137 -10 66 -4 131 -8 145 -10 14 -1 75 -6 135 -10 61 -4 126 -9 145 -11 19
-1 87 -6 150 -10 63 -4 122 -8 130 -10 8 -1 29 -3 45 -3 25 -1 55 -25 168
-134 104 -101 135 -136 125 -144 -7 -5 -38 -20 -68 -32 -30 -13 -112 -47 -183
-77 l-127 -53 -353 129 c-193 70 -443 161 -555 202 l-203 73 7 40 c11 66 21
84 43 80 11 -2 70 -7 131 -10z m-2844 -66 c126 -27 269 -95 342 -162 l22 -21
-201 -199 -201 -200 -24 29 c-120 144 -229 372 -250 523 l-6 40 39 4 c82 9
202 3 279 -14z m2949 -274 c72 -25 153 -55 180 -65 28 -11 167 -62 310 -114
300 -108 305 -110 326 -139 62 -85 190 -270 187 -272 -13 -10 -245 -66 -275
-67 -51 0 -64 6 -270 118 -98 53 -205 111 -238 129 -33 18 -130 71 -215 117
-85 47 -200 109 -255 138 -55 29 -102 54 -104 56 -2 2 6 51 19 108 l23 104 91
-33 c50 -18 150 -54 221 -80z m-2430 -85 c89 -139 128 -273 128 -441 1 -150 1
-149 -60 -138 -108 20 -243 72 -353 138 -78 46 -180 121 -180 132 0 3 88 94
196 203 167 166 199 194 212 184 8 -7 34 -42 57 -78z m1523 11 c15 -10 37 -22
50 -26 28 -8 24 -14 -14 -21 -16 -2 -55 -17 -87 -33 -32 -15 -56 -25 -55 -22
51 99 64 121 71 121 5 0 21 -8 35 -19z m287 -190 c70 -35 121 -86 156 -160 32
-64 33 -195 2 -263 -30 -66 -96 -133 -162 -165 -48 -24 -68 -28 -141 -28 -74
0 -93 4 -143 29 -157 78 -226 272 -154 430 78 170 274 240 442 157z m693 -203
c30 -17 50 -34 45 -38 -4 -4 -26 -19 -47 -33 l-40 -26 -48 67 c-27 37 -56 80
-64 95 l-15 28 58 -32 c32 -17 82 -45 111 -61z m256 -139 c42 -22 76 -45 76
-50 0 -10 -111 -93 -186 -138 -54 -34 -114 -44 -154 -28 -31 13 -80 57 -80 71
1 10 247 184 262 186 3 0 41 -18 82 -41z"/>
<path d="M4088 4665 c-2 -1 -27 -6 -57 -9 -217 -26 -486 -200 -649 -421 -118
-160 -210 -369 -247 -560 -28 -150 -21 -361 19 -490 2 -5 7 -23 11 -40 14 -51
63 -153 97 -203 172 -251 441 -347 749 -267 281 73 568 340 707 657 43 99 87
237 97 309 3 24 9 53 12 63 3 10 5 71 5 135 0 475 -264 804 -664 825 -42 2
-78 3 -80 1z m180 -134 l40 -11 -31 -69 -32 -69 -30 12 c-85 37 -215 100 -215
105 1 19 23 35 56 41 52 9 162 4 212 -9z m260 -157 c76 -81 95 -115 79 -138
-12 -16 -22 -13 -134 39 l-120 57 28 59 c16 33 29 64 29 70 0 19 62 -26 118
-87z m-701 68 c8 -5 -1 -36 -35 -109 l-46 -102 -25 14 c-14 7 -47 23 -74 35
l-47 22 41 36 c49 44 150 112 164 112 6 0 15 -4 22 -8z m251 -117 c61 -27 112
-53 112 -56 0 -4 -20 -50 -44 -102 l-45 -96 -116 53 c-64 30 -119 56 -122 59
-5 6 62 159 80 185 6 7 13 11 17 10 4 -2 57 -25 118 -53z m382 -176 l88 -41
-44 -96 c-25 -53 -46 -97 -48 -99 -2 -2 -34 11 -72 28 -38 17 -93 41 -121 54
l-52 24 35 78 c20 43 40 88 45 101 10 26 7 27 169 -49z m-855 17 c44 -21 82
-39 84 -42 6 -6 -81 -194 -90 -194 -8 0 -200 88 -207 94 -8 8 117 187 127 182
3 -2 42 -20 86 -40z m329 -151 l116 -54 -17 -38 c-10 -21 -31 -66 -48 -100
l-30 -62 -75 36 c-41 20 -94 44 -117 54 -24 10 -43 23 -43 28 0 17 82 191 90
191 4 0 60 -25 124 -55z m761 14 c12 -35 16 -70 16 -137 2 -111 8 -104 -71
-69 -38 17 -70 34 -70 39 0 4 20 50 45 102 33 72 48 94 59 90 8 -3 18 -14 21
-25z m-1249 -165 c55 -25 101 -47 102 -49 2 -2 -14 -43 -37 -90 -23 -48 -41
-91 -41 -96 0 -5 -5 -9 -10 -9 -13 0 -171 70 -185 82 -15 13 45 208 64 208 5
0 53 -21 107 -46z m877 -27 c42 -20 77 -38 77 -41 0 -6 -80 -188 -85 -194 -3
-4 -227 97 -238 107 -4 4 13 51 37 104 l45 97 43 -19 c24 -10 78 -35 121 -54z
m-535 -130 c48 -23 92 -42 97 -42 19 -1 7 -49 -32 -132 l-38 -82 -120 56 c-66
30 -121 56 -123 57 -1 2 18 47 43 100 52 111 37 107 173 43z m895 -34 c10 -3
16 -12 13 -22 -3 -9 -14 -52 -26 -96 -11 -44 -24 -86 -29 -93 -5 -9 -35 0
-112 36 l-106 48 29 64 c15 36 35 82 44 102 l16 37 76 -36 c42 -19 85 -38 95
-40z m-605 -99 c31 -15 85 -39 120 -55 67 -30 67 -31 52 -57 -5 -9 -25 -52
-44 -94 -20 -43 -38 -78 -41 -78 -3 0 -13 4 -23 10 -9 5 -61 30 -114 54 -54
25 -98 49 -98 53 0 9 84 193 88 193 2 0 29 -12 60 -26z m-752 -30 c44 -20 80
-37 82 -38 3 -4 -87 -196 -93 -196 -2 0 -20 8 -40 17 -34 16 -35 18 -36 77 -1
34 -1 64 -1 67 1 3 2 29 3 57 2 29 3 52 5 52 1 0 37 -16 80 -36z m319 -146
c63 -29 115 -55 115 -59 0 -4 -20 -50 -44 -103 l-44 -95 -59 28 c-32 15 -86
41 -120 56 -35 15 -63 30 -63 32 0 2 12 30 26 61 14 31 33 74 42 94 9 21 20
38 24 38 5 0 60 -23 123 -52z m820 -3 c44 -20 90 -41 103 -46 22 -9 22 -9 6
-41 -21 -41 -95 -158 -99 -158 -2 0 -47 20 -99 44 l-96 45 36 78 c56 121 57
123 63 119 3 -2 42 -20 86 -41z m-467 -160 c70 -33 116 -60 114 -68 -7 -26
-86 -187 -91 -186 -3 0 -58 26 -122 57 l-117 57 46 98 c25 53 47 97 48 97 2 0
57 -25 122 -55z m-515 -139 c52 -24 104 -47 116 -51 12 -4 20 -12 18 -18 -32
-78 -82 -177 -90 -177 -33 0 -187 166 -187 202 0 22 31 88 41 88 5 0 50 -20
102 -44z m906 -43 c7 -5 -96 -100 -141 -130 -33 -22 -40 -24 -72 -13 -20 6
-36 15 -36 20 0 5 20 52 44 104 l45 96 78 -37 c43 -20 80 -38 82 -40z m-527
-131 l114 -53 -20 -45 c-14 -30 -29 -47 -46 -51 -41 -11 -192 -5 -231 9 l-36
13 44 93 c24 52 47 92 52 90 5 -2 60 -27 123 -56z"/>
<path d="M976 4291 c-35 -38 2 -115 54 -113 41 1 60 18 60 52 0 65 -75 104
-114 61z"/>
<path d="M1090 4120 c-34 -34 -45 -15 326 -569 94 -141 115 -166 138 -169 34
-4 66 22 66 55 0 21 -393 626 -443 681 -25 27 -61 28 -87 2z"/>
</g>
</svg>
